<svg version="1.1" viewBox="0.0 0.0 201.0 198.0" fill="none" stroke="none" stroke-linecap="square" stroke-miterlimit="10" xmlns:xlink="http://www.w3.org/1999/xlink" xmlns="http://www.w3.org/2000/svg"><clipPath id="p.0"><path d="m0 0l201.0 0l0 198.0l-201.0 0l0 -198.0z" clip-rule="nonzero"/></clipPath><g clip-path="url(#p.0)"><path fill="#000000" fill-opacity="0.0" d="m0 0l201.0 0l0 198.0l-201.0 0z" fill-rule="evenodd"/><path fill="#cfe2f3" d="m26.286089 74.69782l50.21489 0l0 -50.21488l48.452118 0l0 50.21488l50.21489 0l0 49.334015l-50.21489 0l0 50.21488l-48.452118 0l0 -50.21488l-50.21489 0z" fill-rule="evenodd"/><path stroke="#000000" stroke-width="1.0" stroke-linejoin="round" stroke-linecap="butt" d="m26.286089 74.69782l50.21489 0l0 -50.21488l48.452118 0l0 50.21488l50.21489 0l0 49.334015l-50.21489 0l0 50.21488l-48.452118 0l0 -50.21488l-50.21489 0z" fill-rule="evenodd"/><path fill="#cfe2f3" d="m92.746956 6.3017573l16.850395 0l0 20.0l-16.850395 0z" fill-rule="evenodd"/><path fill="#000000" fill-opacity="0.0" d="m93.35748 25.564272l0 -18.46l16.64502 0l0 17.074287" fill-rule="evenodd"/><path stroke="#000000" stroke-width="1.0" stroke-linejoin="round" stroke-linecap="butt" d="m93.35748 25.564272l0 -18.46l16.64502 0l0 17.074287" fill-rule="evenodd"/><path fill="#cfe2f3" d="m194.46202 91.23751l0 18.015747l-20.503937 0l0 -18.015747z" fill-rule="evenodd"/><path fill="#000000" fill-opacity="0.0" d="m174.71739 91.89067l18.921997 0l0 17.80539l-17.501602 0" fill-rule="evenodd"/><path stroke="#000000" stroke-width="1.0" stroke-linejoin="round" stroke-linecap="butt" d="m174.71739 91.89067l18.921997 0l0 17.80539l-17.501602 0" fill-rule="evenodd"/><path fill="#cfe2f3" d="m110.02379 191.49747l-18.488182 0l0 -18.456696l18.488182 0z" fill-rule="evenodd"/><path fill="#000000" fill-opacity="0.0" d="m109.354195 173.71877l0 17.03801l-18.254364 0l0 -15.759033" fill-rule="evenodd"/><path stroke="#000000" stroke-width="1.0" stroke-linejoin="round" stroke-linecap="butt" d="m109.354195 173.71877l0 17.03801l-18.254364 0l0 -15.759033" fill-rule="evenodd"/><path fill="#cfe2f3" d="m7.9580817 109.47427l0 -18.015747l20.503937 0l0 18.015747z" fill-rule="evenodd"/><path fill="#000000" fill-opacity="0.0" d="m27.702713 108.82111l-18.922 0l0 -17.80539l17.501608 0" fill-rule="evenodd"/><path stroke="#000000" stroke-width="1.0" stroke-linejoin="round" stroke-linecap="butt" d="m27.702713 108.82111l-18.922 0l0 -17.80539l17.501608 0" fill-rule="evenodd"/></g></svg>