<svg version="1.1" viewBox="0.0 0.0 178.1286089238845 150.6797900262467" fill="none" stroke="none" stroke-linecap="square" stroke-miterlimit="10" xmlns:xlink="http://www.w3.org/1999/xlink" xmlns="http://www.w3.org/2000/svg"><clipPath id="p.0"><path d="m0 0l178.12862 0l0 150.6798l-178.12862 0l0 -150.6798z" clip-rule="nonzero"/></clipPath><g clip-path="url(#p.0)"><path fill="#000000" fill-opacity="0.0" d="m0 0l178.12862 0l0 150.6798l-178.12862 0z" fill-rule="evenodd"/><path fill="#cfe2f3" d="m56.548557 7.5l64.97638 0l0 131.71654l-64.97638 0z" fill-rule="evenodd"/><path stroke="#000000" stroke-width="1.0" stroke-linejoin="round" stroke-linecap="butt" d="m56.548557 7.5l64.97638 0l0 131.71654l-64.97638 0z" fill-rule="evenodd"/><path fill="#cfe2f3" d="m171.38846 59.631176l0 26.740162l-52.53544 0l0 -26.740162z" fill-rule="evenodd"/><path fill="#000000" fill-opacity="0.0" d="m121.52488 60.716984l49.250374 -0.11674881l0 26.40062l-49.157227 0" fill-rule="evenodd"/><path stroke="#000000" stroke-width="1.0" stroke-linejoin="round" stroke-linecap="butt" d="m121.52488 60.716984l49.250374 -0.11674881l0 26.40062l-49.157227 0" fill-rule="evenodd"/><path fill="#cfe2f3" d="m6.6430445 86.62257l0 -25.763775l52.535435 0l0 25.763775z" fill-rule="evenodd"/><path fill="#000000" fill-opacity="0.0" d="m56.506615 85.5752l-49.250374 0.11261749l0 -25.467594l49.157227 0" fill-rule="evenodd"/><path stroke="#000000" stroke-width="1.0" stroke-linejoin="round" stroke-linecap="butt" d="m56.506615 85.5752l-49.250374 0.11261749l0 -25.467594l49.157227 0" fill-rule="evenodd"/></g></svg>