<svg version="1.1" viewBox="0.0 0.0 223.15748031496062 258.5275590551181" fill="none" stroke="none" stroke-linecap="square" stroke-miterlimit="10" xmlns:xlink="http://www.w3.org/1999/xlink" xmlns="http://www.w3.org/2000/svg"><clipPath id="p.0"><path d="m0 0l223.15749 0l0 258.52756l-223.15749 0l0 -258.52756z" clip-rule="nonzero"/></clipPath><g clip-path="url(#p.0)"><path fill="#000000" fill-opacity="0.0" d="m0 0l223.15749 0l0 258.52756l-223.15749 0z" fill-rule="evenodd"/><path fill="#cfe2f3" d="m25.700787 65.01013l55.03113 0l0 -55.031128l65.307816 0l0 55.031128l55.031128 0l0 128.20546l-55.031128 0l0 55.031128l-65.307816 0l0 -55.031128l-55.03113 0z" fill-rule="evenodd"/><path stroke="#000000" stroke-width="1.0" stroke-linejoin="round" stroke-linecap="butt" d="m25.700787 65.01013l55.03113 0l0 -55.031128l65.307816 0l0 55.031128l55.031128 0l0 128.20546l-55.031128 0l0 55.031128l-65.307816 0l0 -55.031128l-55.03113 0z" fill-rule="evenodd"/></g></svg>