<svg version="1.1" viewBox="0.0 0.0 287.15748031496065 303.15748031496065" fill="none" stroke="none" stroke-linecap="square" stroke-miterlimit="10" xmlns:xlink="http://www.w3.org/1999/xlink" xmlns="http://www.w3.org/2000/svg"><clipPath id="p.0"><path d="m0 0l287.15747 0l0 303.15747l-287.15747 0l0 -303.15747z" clip-rule="nonzero"/></clipPath><g clip-path="url(#p.0)"><path fill="#000000" fill-opacity="0.0" d="m0 0l287.15747 0l0 303.15747l-287.15747 0z" fill-rule="evenodd"/><path fill="#cfe2f3" d="m25.700787 74.3828l64.40379 0l0 -64.40379l105.7121 0l0 64.40379l64.40378 0l0 150.05855l-64.40378 0l0 64.40381l-105.7121 0l0 -64.40381l-64.40379 0z" fill-rule="evenodd"/><path stroke="#000000" stroke-width="1.0" stroke-linejoin="round" stroke-linecap="butt" d="m25.700787 74.3828l64.40379 0l0 -64.40379l105.7121 0l0 64.40379l64.40378 0l0 150.05855l-64.40378 0l0 64.40381l-105.7121 0l0 -64.40381l-64.40379 0z" fill-rule="evenodd"/></g></svg>