<svg version="1.1" viewBox="0.0 0.0 459.249343832021 458.34645669291336" fill="none" stroke="none" stroke-linecap="square" stroke-miterlimit="10" xmlns:xlink="http://www.w3.org/1999/xlink" xmlns="http://www.w3.org/2000/svg"><clipPath id="p.0"><path d="m0 0l459.24933 0l0 458.34647l-459.24933 0l0 -458.34647z" clip-rule="nonzero"/></clipPath><g clip-path="url(#p.0)"><path fill="#000000" fill-opacity="0.0" d="m0 0l459.24933 0l0 458.34647l-459.24933 0z" fill-rule="evenodd"/><path fill="#cfe2f3" d="m0 151.98868l151.98868 0l0 -151.98868l148.93604 0l0 151.98868l151.98868 0l0 148.93604l-151.98868 0l0 151.98868l-148.93604 0l0 -151.98868l-151.98868 0z" fill-rule="evenodd"/><path stroke="#000000" stroke-width="1.0" stroke-linejoin="round" stroke-linecap="butt" d="m0 151.98868l151.98868 0l0 -151.98868l148.93604 0l0 151.98868l151.98868 0l0 148.93604l-151.98868 0l0 151.98868l-148.93604 0l0 -151.98868l-151.98868 0z" fill-rule="evenodd"/><path fill="#000000" fill-opacity="0.0" d="m0 343.7638l152.0 1.0078735" fill-rule="evenodd"/><path stroke="#000000" stroke-width="2.0" stroke-linejoin="round" stroke-linecap="butt" d="m11.999736 343.84335l128.00052 0.8487549" fill-rule="evenodd"/><path fill="#000000" stroke="#000000" stroke-width="2.0" stroke-linecap="butt" d="m12.02164 340.53995l-9.097899 3.243225l9.054091 3.363556z" fill-rule="evenodd"/><path fill="#000000" stroke="#000000" stroke-width="2.0" stroke-linecap="butt" d="m139.97836 347.99548l9.0979 -3.243225l-9.054092 -3.363556z" fill-rule="evenodd"/><path fill="#000000" fill-opacity="0.0" d="m60.183727 342.04462l42.834644 0l0 40.787415l-42.834644 0z" fill-rule="evenodd"/><path fill="#000000" d="m74.71497 375.4415l3.40625 0q0.5625 0 0.9375 -0.0625q0.375 -0.0625 0.640625 -0.1875q0.28125 -0.140625 0.484375 -0.375q0.21875 -0.25 0.40625 -0.640625q0.203125 -0.390625 0.375 -0.984375q0.1875 -0.59375 0.4375 -1.78125l1.3125 0l-0.25 5.234375l-11.703125 0l0 -0.640625q0.796875 -0.203125 1.0625 -0.453125q0.28125 -0.265625 0.359375 -0.734375q0.09375 -0.46875 0.09375 -1.421875l0 -11.265625q0 -0.890625 -0.0625 -1.296875q-0.0625 -0.421875 -0.21875 -0.640625q-0.140625 -0.234375 -0.390625 -0.359375q-0.25 -0.140625 -0.84375 -0.3125l0 -0.640625l5.46875 0l0 0.640625q-0.5625 0.15625 -0.8125 0.28125q-0.234375 0.125 -0.390625 0.328125q-0.15625 0.203125 -0.234375 0.640625q-0.078125 0.421875 -0.078125 1.359375l0 13.3125z" fill-rule="nonzero"/><path fill="#000000" fill-opacity="0.0" d="m368.9449 452.9134l1.3543396 -150.96063" fill-rule="evenodd"/><path stroke="#000000" stroke-width="2.0" stroke-linejoin="round" stroke-linecap="butt" d="m369.05252 440.91388l1.1390381 -126.96161" fill-rule="evenodd"/><path fill="#000000" stroke="#000000" stroke-width="2.0" stroke-linecap="butt" d="m365.7492 440.88425l3.2218933 9.105438l3.3847656 -9.046173z" fill-rule="evenodd"/><path fill="#000000" stroke="#000000" stroke-width="2.0" stroke-linecap="butt" d="m373.4949 313.9819l-3.2219238 -9.105469l-3.3847656 9.046204z" fill-rule="evenodd"/><path fill="#000000" fill-opacity="0.0" d="m369.10236 354.9824l42.834656 0l0 40.787415l-42.834656 0z" fill-rule="evenodd"/><path fill="#000000" d="m383.6336 388.37927l3.40625 0q0.5625 0 0.9375 -0.0625q0.375 -0.0625 0.640625 -0.1875q0.28125 -0.140625 0.484375 -0.375q0.21875 -0.25 0.40625 -0.640625q0.203125 -0.390625 0.375 -0.984375q0.1875 -0.59375 0.4375 -1.78125l1.3125 0l-0.25 5.234375l-11.703125 0l0 -0.640625q0.796875 -0.203125 1.0625 -0.453125q0.28125 -0.265625 0.359375 -0.734375q0.09375 -0.46875 0.09375 -1.421875l0 -11.265625q0 -0.890625 -0.0625 -1.296875q-0.0625 -0.421875 -0.21875 -0.640625q-0.140625 -0.234375 -0.390625 -0.359375q-0.25 -0.140625 -0.84375 -0.3125l0 -0.640625l5.46875 0l0 0.640625q-0.5625 0.15625 -0.8125 0.28125q-0.234375 0.125 -0.390625 0.328125q-0.15625 0.203125 -0.234375 0.640625q-0.078125 0.421875 -0.078125 1.359375l0 13.3125z" fill-rule="nonzero"/></g></svg>