<svg version="1.1" viewBox="0.0 0.0 459.249343832021 458.34645669291336" fill="none" stroke="none" stroke-linecap="square" stroke-miterlimit="10" xmlns:xlink="http://www.w3.org/1999/xlink" xmlns="http://www.w3.org/2000/svg"><clipPath id="p.0"><path d="m0 0l459.24933 0l0 458.34647l-459.24933 0l0 -458.34647z" clip-rule="nonzero"/></clipPath><g clip-path="url(#p.0)"><path fill="#000000" fill-opacity="0.0" d="m0 0l459.24933 0l0 458.34647l-459.24933 0z" fill-rule="evenodd"/><path fill="#cfe2f3" d="m0 151.98868l151.98868 0l0 -151.98868l148.93604 0l0 151.98868l151.98868 0l0 148.93604l-151.98868 0l0 151.98868l-148.93604 0l0 -151.98868l-151.98868 0z" fill-rule="evenodd"/><path stroke="#000000" stroke-width="1.0" stroke-linejoin="round" stroke-linecap="butt" d="m0 151.98868l151.98868 0l0 -151.98868l148.93604 0l0 151.98868l151.98868 0l0 148.93604l-151.98868 0l0 151.98868l-148.93604 0l0 -151.98868l-151.98868 0z" fill-rule="evenodd"/><path fill="#000000" fill-opacity="0.0" d="m0 343.7638l152.0 1.0078735" fill-rule="evenodd"/><path stroke="#000000" stroke-width="1.0" stroke-linejoin="round" stroke-linecap="butt" d="m5.999868 343.80356l140.00027 0.9283142" fill-rule="evenodd"/><path fill="#000000" stroke="#000000" stroke-width="1.0" stroke-linecap="butt" d="m6.01082 342.15186l-4.5489497 1.6216125l4.5270457 1.6817932z" fill-rule="evenodd"/><path fill="#000000" stroke="#000000" stroke-width="1.0" stroke-linecap="butt" d="m145.98918 346.38358l4.54895 -1.6216125l-4.527054 -1.6817932z" fill-rule="evenodd"/><path fill="#000000" fill-opacity="0.0" d="m60.183727 342.04462l42.834644 0l0 40.787415l-42.834644 0z" fill-rule="evenodd"/><path fill="#000000" d="m73.05872 368.12088l2.390625 0q0.390625 0 0.640625 -0.03125q0.265625 -0.046875 0.453125 -0.140625q0.1875 -0.109375 0.34375 -0.265625q0.15625 -0.171875 0.28125 -0.4375q0.140625 -0.28125 0.265625 -0.6875q0.125 -0.421875 0.296875 -1.25l0.921875 0l-0.171875 3.65625l-8.1875 0l0 -0.453125q0.5625 -0.140625 0.75 -0.3125q0.1875 -0.1875 0.25 -0.515625q0.0625 -0.328125 0.0625 -1.0l0 -7.875q0 -0.625 -0.046875 -0.90625q-0.046875 -0.296875 -0.15625 -0.453125q-0.09375 -0.15625 -0.28125 -0.25q-0.171875 -0.109375 -0.578125 -0.21875l0 -0.453125l3.828125 0l0 0.453125q-0.40625 0.109375 -0.578125 0.203125q-0.15625 0.078125 -0.265625 0.21875q-0.109375 0.140625 -0.171875 0.453125q-0.046875 0.296875 -0.046875 0.953125l0 9.3125z" fill-rule="nonzero"/><path fill="#000000" fill-opacity="0.0" d="m368.9449 452.9134l1.3543396 -150.96063" fill-rule="evenodd"/><path stroke="#000000" stroke-width="1.0" stroke-linejoin="round" stroke-linecap="butt" d="m368.99872 446.91364l1.2466431 -138.96112" fill-rule="evenodd"/><path fill="#000000" stroke="#000000" stroke-width="1.0" stroke-linecap="butt" d="m367.34705 446.8988l1.6109619 4.5527344l1.6923523 -4.523102z" fill-rule="evenodd"/><path fill="#000000" stroke="#000000" stroke-width="1.0" stroke-linecap="butt" d="m371.89706 307.96735l-1.6109619 -4.5527344l-1.6923828 4.5230713z" fill-rule="evenodd"/><path fill="#000000" fill-opacity="0.0" d="m369.10236 354.9824l42.834656 0l0 40.787415l-42.834656 0z" fill-rule="evenodd"/><path fill="#000000" d="m381.97736 381.05865l2.390625 0q0.390625 0 0.640625 -0.03125q0.265625 -0.046875 0.453125 -0.140625q0.1875 -0.109375 0.34375 -0.265625q0.15625 -0.171875 0.28125 -0.4375q0.140625 -0.28125 0.265625 -0.6875q0.125 -0.421875 0.296875 -1.25l0.921875 0l-0.171875 3.65625l-8.1875 0l0 -0.453125q0.5625 -0.140625 0.75 -0.3125q0.1875 -0.1875 0.25 -0.515625q0.0625 -0.328125 0.0625 -1.0l0 -7.875q0 -0.625 -0.046875 -0.90625q-0.046875 -0.296875 -0.15625 -0.453125q-0.09375 -0.15625 -0.28125 -0.25q-0.171875 -0.109375 -0.578125 -0.21875l0 -0.453125l3.828125 0l0 0.453125q-0.40625 0.109375 -0.578125 0.203125q-0.15625 0.078125 -0.265625 0.21875q-0.109375 0.140625 -0.171875 0.453125q-0.046875 0.296875 -0.046875 0.953125l0 9.3125z" fill-rule="nonzero"/></g></svg>