<svg version="1.1" viewBox="0.0 0.0 1024.0 768.0" fill="none" stroke="none" stroke-linecap="square" stroke-miterlimit="10" xmlns:xlink="http://www.w3.org/1999/xlink" xmlns="http://www.w3.org/2000/svg"><clipPath id="p.0"><path d="m0 0l1024.0 0l0 768.0l-1024.0 0l0 -768.0z" clip-rule="nonzero"/></clipPath><g clip-path="url(#p.0)"><path fill="#000000" fill-opacity="0.0" d="m0 0l1024.0 0l0 768.0l-1024.0 0z" fill-rule="evenodd"/><path fill="#cfe2f3" d="m0 0l40.913387 0l0 151.33858l-40.913387 0z" fill-rule="evenodd"/><path stroke="#000000" stroke-width="1.0" stroke-linejoin="round" stroke-linecap="butt" d="m0 0l40.913387 0l0 151.33858l-40.913387 0z" fill-rule="evenodd"/><path fill="#000000" d="m16.863518 75.38058l0 0c0 -2.261322 1.8331642 -4.09449 4.094488 -4.09449l0 0c1.085926 0 2.1273746 0.43138123 2.8952389 1.1992493c0.76786613 0.76786804 1.1992493 1.8093185 1.1992493 2.8952408l0 0c0 2.261322 -1.8331661 4.09449 -4.094488 4.09449l0 0c-2.261324 0 -4.094488 -1.833168 -4.094488 -4.09449z" fill-rule="evenodd"/><path stroke="#000000" stroke-width="1.0" stroke-linejoin="round" stroke-linecap="butt" d="m16.863518 75.38058l0 0c0 -2.261322 1.8331642 -4.09449 4.094488 -4.09449l0 0c1.085926 0 2.1273746 0.43138123 2.8952389 1.1992493c0.76786613 0.76786804 1.1992493 1.8093185 1.1992493 2.8952408l0 0c0 2.261322 -1.8331661 4.09449 -4.094488 4.09449l0 0c-2.261324 0 -4.094488 -1.833168 -4.094488 -4.09449z" fill-rule="evenodd"/><path fill="#000000" fill-opacity="0.0" d="m55.5853 0l0 151.33858" fill-rule="evenodd"/><path stroke="#000000" stroke-width="1.0" stroke-linejoin="round" stroke-linecap="butt" d="m55.5853 6.0l0 139.33858" fill-rule="evenodd"/><path fill="#000000" stroke="#000000" stroke-width="1.0" stroke-linecap="butt" d="m57.237034 6.0l-1.6517334 -4.538098l-1.6517296 4.538098z" fill-rule="evenodd"/><path fill="#000000" stroke="#000000" stroke-width="1.0" stroke-linecap="butt" d="m53.93357 145.33858l1.6517296 4.538101l1.6517334 -4.538101z" fill-rule="evenodd"/><path fill="#000000" fill-opacity="0.0" d="m57.149605 54.01837l35.779526 0l0 37.826775l-35.779526 0z" fill-rule="evenodd"/><path fill="#000000" d="m70.024605 80.09462l2.390625 0q0.390625 0 0.640625 -0.03125q0.265625 -0.046875 0.453125 -0.140625q0.1875 -0.109375 0.34375 -0.265625q0.15625 -0.171875 0.28125 -0.4375q0.140625 -0.28125 0.265625 -0.6875q0.125 -0.421875 0.296875 -1.25l0.921875 0l-0.171875 3.65625l-8.1875 0l0 -0.453125q0.5625 -0.140625 0.75 -0.3125q0.1875 -0.1875 0.25 -0.515625q0.0625 -0.328125 0.0625 -1.0l0 -7.875q0 -0.625 -0.046875 -0.90625q-0.046875 -0.296875 -0.15625 -0.453125q-0.09375 -0.15625 -0.28125 -0.25q-0.171875 -0.109375 -0.578125 -0.21875l0 -0.453125l3.828125 0l0 0.453125q-0.40625 0.109375 -0.578125 0.203125q-0.15625 0.078125 -0.265625 0.21875q-0.109375 0.140625 -0.171875 0.453125q-0.046875 0.296875 -0.046875 0.953125l0 9.3125z" fill-rule="nonzero"/><path fill="#000000" fill-opacity="0.0" d="m1.023622 172.82677l40.913387 1.0078735" fill-rule="evenodd"/><path stroke="#000000" stroke-width="1.0" stroke-linejoin="round" stroke-linecap="butt" d="m7.0218024 172.97453l28.917025 0.71235657" fill-rule="evenodd"/><path fill="#000000" stroke="#000000" stroke-width="1.0" stroke-linecap="butt" d="m7.062479 171.3233l-4.5773983 1.5394745l4.496044 1.7629852z" fill-rule="evenodd"/><path fill="#000000" stroke="#000000" stroke-width="1.0" stroke-linecap="butt" d="m35.89815 175.33812l4.5773964 -1.5394745l-4.496044 -1.7629852z" fill-rule="evenodd"/><path fill="#000000" fill-opacity="0.0" d="m0.36220473 172.34645l51.11811 0l0 37.826782l-51.11811 0z" fill-rule="evenodd"/><path fill="#000000" d="m13.237205 198.4227l2.390625 0q0.39062595 0 0.64062595 -0.03125q0.265625 -0.046875 0.453125 -0.140625q0.1875 -0.109375 0.34375 -0.265625q0.15625 -0.171875 0.28125 -0.4375q0.140625 -0.28125 0.265625 -0.6875q0.125 -0.421875 0.296875 -1.25l0.921875 0l-0.171875 3.65625l-8.187501 0l0 -0.453125q0.5625 -0.140625 0.75 -0.3125q0.1875 -0.1875 0.25 -0.515625q0.0625 -0.328125 0.0625 -1.0l0 -7.875q0 -0.625 -0.046875 -0.90625q-0.046875 -0.296875 -0.15625 -0.453125q-0.09375 -0.15625 -0.28125 -0.25q-0.171875 -0.109375 -0.578125 -0.21875l0 -0.453125l3.828125 0l0 0.453125q-0.40625 0.109375 -0.578125 0.203125q-0.15625 0.078125 -0.265625 0.21875q-0.109375 0.140625 -0.171875 0.453125q-0.046875 0.296875 -0.046875 0.953125l0 9.3125zm14.714463 -12.1875l-6.578125 16.953125l-1.4375 0l6.59375 -16.953125l1.421875 0zm5.270935 12.578125q0.5625 -0.140625 0.75 -0.3125q0.1875 -0.1875 0.25 -0.515625q0.0625 -0.328125 0.0625 -1.0l0 -1.484375l-5.0625 0l0 -0.6875l5.328125 -8.046875l1.296875 0l0 7.84375l0.203125 0q0.515625 0 0.75 -0.078125q0.234375 -0.078125 0.375 -0.265625q0.15625 -0.203125 0.28125 -0.640625l0.6875 0l-0.109375 1.875l-2.1875 0l0 1.484375q0 0.609375 0.046875 0.890625q0.046875 0.28125 0.140625 0.453125q0.09375 0.15625 0.28125 0.265625q0.1875 0.109375 0.609375 0.21875l0 0.453125l-3.703125 0l0 -0.453125zm-2.5 -4.203125l3.5625 0l0 -2.265625q0 -0.859375 0.03125 -1.921875q0.03125 -1.0625 0.0625 -1.59375l-0.09375 0l-3.5625 5.65625l0 0.125z" fill-rule="nonzero"/></g></svg>