<svg version="1.1" viewBox="0.0 0.0 1152.0 864.0" fill="none" stroke="none" stroke-linecap="square" stroke-miterlimit="10" xmlns:xlink="http://www.w3.org/1999/xlink" xmlns="http://www.w3.org/2000/svg"><clipPath id="p.0"><path d="m0 0l1152.0 0l0 864.0l-1152.0 0l0 -864.0z" clip-rule="nonzero"/></clipPath><g clip-path="url(#p.0)"><path fill="#000000" fill-opacity="0.0" d="m0 0l1152.0 0l0 864.0l-1152.0 0z" fill-rule="evenodd"/><path fill="#cfe2f3" d="m0 44.88104l44.88104 0l0 -44.88104l63.245792 0l0 44.88104l44.881042 0l0 62.23792l-44.881042 0l0 44.881042l-63.245792 0l0 -44.881042l-44.88104 0z" fill-rule="evenodd"/><path stroke="#000000" stroke-width="1.0" stroke-linejoin="round" stroke-linecap="butt" d="m0 44.88104l44.88104 0l0 -44.88104l63.245792 0l0 44.88104l44.881042 0l0 62.23792l-44.881042 0l0 44.881042l-63.245792 0l0 -44.881042l-44.88104 0z" fill-rule="evenodd"/><path fill="#000000" fill-opacity="0.0" d="m125.62992 108.12861l0 44.88189" fill-rule="evenodd"/><path stroke="#000000" stroke-width="1.0" stroke-linejoin="round" stroke-linecap="butt" d="m125.62992 114.12861l0 32.88189" fill-rule="evenodd"/><path fill="#000000" stroke="#000000" stroke-width="1.0" stroke-linecap="butt" d="m127.281654 114.12861l-1.6517334 -4.538101l-1.6517334 4.538101z" fill-rule="evenodd"/><path fill="#000000" stroke="#000000" stroke-width="1.0" stroke-linecap="butt" d="m123.97819 147.0105l1.6517334 4.538101l1.6517334 -4.538101z" fill-rule="evenodd"/><path fill="#000000" fill-opacity="0.0" d="m126.53543 105.87139l50.992126 0l0 44.88189l-50.992126 0z" fill-rule="evenodd"/><path fill="#000000" d="m139.41043 131.94763l2.390625 0q0.390625 0 0.640625 -0.03125q0.265625 -0.046875 0.453125 -0.140625q0.1875 -0.109375 0.34375 -0.265625q0.15625 -0.171875 0.28125 -0.4375q0.140625 -0.28125 0.265625 -0.6875q0.125 -0.421875 0.296875 -1.25l0.921875 0l-0.171875 3.65625l-8.1875 0l0 -0.453125q0.5625 -0.140625 0.75 -0.3125q0.1875 -0.1875 0.25 -0.515625q0.0625 -0.328125 0.0625 -1.0l0 -7.8749924q0 -0.625 -0.046875 -0.90625q-0.046875 -0.296875 -0.15625 -0.453125q-0.09375 -0.15625 -0.28125 -0.25q-0.171875 -0.109375 -0.578125 -0.21875l0 -0.453125l3.828125 0l0 0.453125q-0.40625 0.109375 -0.578125 0.203125q-0.15625 0.078125 -0.265625 0.21875q-0.109375 0.140625 -0.171875 0.453125q-0.046875 0.296875 -0.046875 0.953125l0 9.312492zm14.714462 -12.187492l-6.578125 16.953117l-1.4375 0l6.59375 -16.953117l1.421875 0zm5.270935 12.578117q0.5625 -0.140625 0.75 -0.3125q0.1875 -0.1875 0.25 -0.515625q0.0625 -0.328125 0.0625 -1.0l0 -1.484375l-5.0625 0l0 -0.6875l5.328125 -8.046867l1.296875 0l0 7.8437424l0.203125 0q0.515625 0 0.75 -0.078125q0.234375 -0.07811737 0.375 -0.26561737q0.15625 -0.203125 0.28125 -0.640625l0.6875 0l-0.109375 1.8749924l-2.1875 0l0 1.484375q0 0.609375 0.046875 0.890625q0.046875 0.28125 0.140625 0.453125q0.09375 0.15625 0.28125 0.265625q0.1875 0.109375 0.609375 0.21875l0 0.453125l-3.703125 0l0 -0.453125zm-2.5 -4.203125l3.5625 0l0 -2.2656174q0 -0.859375 0.03125 -1.921875q0.03125 -1.0625 0.0625 -1.59375l-0.09375 0l-3.5625 5.6562424l0 0.125z" fill-rule="nonzero"/><path fill="#000000" fill-opacity="0.0" d="m-0.86027557 127.507645l50.992126 0l0 38.771652l-50.992126 0z" fill-rule="evenodd"/><path fill="#000000" d="m12.014725 153.5839l2.390625 0q0.390625 0 0.640625 -0.03125q0.265625 -0.046875 0.453125 -0.140625q0.1875 -0.109375 0.34375 -0.265625q0.15625 -0.171875 0.28125 -0.4375q0.140625 -0.28125 0.265625 -0.6875q0.125 -0.421875 0.296875 -1.25l0.921875 0l-0.171875 3.65625l-8.1875 0l0 -0.453125q0.5625 -0.140625 0.75 -0.3125q0.1875 -0.1875 0.25 -0.515625q0.0625 -0.328125 0.0625 -1.0l0 -7.875q0 -0.625 -0.046875 -0.90625q-0.046875 -0.296875 -0.15625 -0.453125q-0.09375 -0.15625 -0.28125 -0.25q-0.171875 -0.109375 -0.578125 -0.21875l0 -0.453125l3.828125 0l0 0.453125q-0.40625 0.109375 -0.578125 0.203125q-0.15625 0.078125 -0.265625 0.21875q-0.109375 0.140625 -0.171875 0.453125q-0.046875 0.296875 -0.046875 0.953125l0 9.3125zm14.714462 -12.1875l-6.578125 16.953125l-1.4375 0l6.59375 -16.953125l1.421875 0zm5.270935 12.578125q0.5625 -0.140625 0.75 -0.3125q0.1875 -0.1875 0.25 -0.515625q0.0625 -0.328125 0.0625 -1.0l0 -1.484375l-5.0625 0l0 -0.6875l5.328125 -8.046875l1.296875 0l0 7.84375l0.203125 0q0.515625 0 0.75 -0.078125q0.234375 -0.078125 0.375 -0.265625q0.15625 -0.203125 0.28125 -0.640625l0.6875 0l-0.109375 1.875l-2.1875 0l0 1.484375q0 0.609375 0.046875 0.890625q0.046875 0.28125 0.140625 0.453125q0.09375 0.15625 0.28125 0.265625q0.1875 0.109375 0.609375 0.21875l0 0.453125l-3.703125 0l0 -0.453125zm-2.5 -4.203125l3.5625 0l0 -2.265625q0 -0.859375 0.03125 -1.921875q0.03125 -1.0625 0.0625 -1.59375l-0.09375 0l-3.5625 5.65625l0 0.125z" fill-rule="nonzero"/><path fill="#000000" fill-opacity="0.0" d="m2.03937 131.58792l41.82677 0" fill-rule="evenodd"/><path stroke="#000000" stroke-width="1.0" stroke-linejoin="round" stroke-linecap="butt" d="m8.039371 131.58792l29.82677 0" fill-rule="evenodd"/><path fill="#000000" stroke="#000000" stroke-width="1.0" stroke-linecap="butt" d="m8.03937 129.93619l-4.5380974 1.6517334l4.5380974 1.6517334z" fill-rule="evenodd"/><path fill="#000000" stroke="#000000" stroke-width="1.0" stroke-linecap="butt" d="m37.866142 133.23965l4.5380974 -1.6517334l-4.5380974 -1.6517334z" fill-rule="evenodd"/><path fill="#000000" d="m67.87755 76.50832l0 0c0 -4.1312637 3.3490448 -7.4803085 7.4803085 -7.4803085l0 0c1.9839096 0 3.886551 0.7881012 5.289383 2.1909332c1.402832 1.4028244 2.1909332 3.3054733 2.1909332 5.2893753l0 0c0 4.1312637 -3.3490524 7.480316 -7.480316 7.480316l0 0c-4.1312637 0 -7.4803085 -3.3490524 -7.4803085 -7.480316z" fill-rule="evenodd"/><path stroke="#000000" stroke-width="1.0" stroke-linejoin="round" stroke-linecap="butt" d="m67.87755 76.50832l0 0c0 -4.1312637 3.3490448 -7.4803085 7.4803085 -7.4803085l0 0c1.9839096 0 3.886551 0.7881012 5.289383 2.1909332c1.402832 1.4028244 2.1909332 3.3054733 2.1909332 5.2893753l0 0c0 4.1312637 -3.3490524 7.480316 -7.480316 7.480316l0 0c-4.1312637 0 -7.4803085 -3.3490524 -7.4803085 -7.480316z" fill-rule="evenodd"/></g></svg>