<svg version="1.1" viewBox="0.0 0.0 1024.0 768.0" fill="none" stroke="none" stroke-linecap="square" stroke-miterlimit="10" xmlns:xlink="http://www.w3.org/1999/xlink" xmlns="http://www.w3.org/2000/svg"><clipPath id="p.0"><path d="m0 0l1024.0 0l0 768.0l-1024.0 0l0 -768.0z" clip-rule="nonzero"/></clipPath><g clip-path="url(#p.0)"><path fill="#000000" fill-opacity="0.0" d="m0 0l1024.0 0l0 768.0l-1024.0 0z" fill-rule="evenodd"/><path fill="#cfe2f3" d="m0 0l154.4252 0l0 150.3307l-154.4252 0z" fill-rule="evenodd"/><path stroke="#000000" stroke-width="1.0" stroke-linejoin="round" stroke-linecap="butt" d="m0 0l154.4252 0l0 150.3307l-154.4252 0z" fill-rule="evenodd"/><path fill="#000000" fill-opacity="0.0" d="m174.20998 0l-1.0078735 151.33858" fill-rule="evenodd"/><path stroke="#000000" stroke-width="1.0" stroke-linejoin="round" stroke-linecap="butt" d="m174.17001 5.9998665l-0.927948 139.33885" fill-rule="evenodd"/><path fill="#000000" stroke="#000000" stroke-width="1.0" stroke-linecap="butt" d="m175.82172 6.0108666l-1.6214752 -4.548997l-1.6819153 4.526997z" fill-rule="evenodd"/><path fill="#000000" stroke="#000000" stroke-width="1.0" stroke-linecap="butt" d="m171.59036 145.32771l1.6214752 4.548996l1.6819153 -4.526993z" fill-rule="evenodd"/><path fill="#000000" fill-opacity="0.0" d="m173.25197 53.175854l60.34645 0l0 36.818897l-60.34645 0z" fill-rule="evenodd"/><path fill="#000000" d="m186.12697 79.2521l2.390625 0q0.390625 0 0.640625 -0.03125q0.265625 -0.046875 0.453125 -0.140625q0.1875 -0.109375 0.34375 -0.265625q0.15625 -0.171875 0.28125 -0.4375q0.140625 -0.28125 0.265625 -0.6875q0.125 -0.421875 0.296875 -1.25l0.921875 0l-0.171875 3.65625l-8.1875 0l0 -0.453125q0.5625 -0.140625 0.75 -0.3125q0.1875 -0.1875 0.25 -0.515625q0.0625 -0.328125 0.0625 -1.0l0 -7.875q0 -0.625 -0.046875 -0.90625q-0.046875 -0.296875 -0.15625 -0.453125q-0.09375 -0.15625 -0.28125 -0.25q-0.171875 -0.109375 -0.578125 -0.21875l0 -0.453125l3.828125 0l0 0.453125q-0.40625 0.109375 -0.578125 0.203125q-0.15625 0.078125 -0.265625 0.21875q-0.109375 0.140625 -0.171875 0.453125q-0.046875 0.296875 -0.046875 0.953125l0 9.3125zm14.714462 -12.1875l-6.578125 16.953125l-1.4375 0l6.59375 -16.953125l1.421875 0zm6.958435 11.578125q0.453125 0 0.71875 -0.046875q0.28125 -0.0625 0.4375 -0.1875q0.171875 -0.140625 0.265625 -0.34375q0.09375 -0.203125 0.234375 -0.625l0.78125 0l-0.15625 2.65625l-7.5 0l0 -0.4375q0.390625 -0.953125 1.046875 -1.953125q0.671875 -1.0 1.90625 -2.359375q1.046875 -1.171875 1.515625 -1.765625q0.515625 -0.65625 0.765625 -1.140625q0.25 -0.484375 0.359375 -0.90625q0.109375 -0.421875 0.109375 -0.84375q0 -0.6875 -0.21875 -1.203125q-0.21875 -0.53125 -0.671875 -0.828125q-0.453125 -0.296875 -1.140625 -0.296875q-1.703125 0 -2.296875 1.890625l-1.09375 0l0 -1.75q1.09375 -0.515625 2.046875 -0.75q0.96875 -0.234375 1.734375 -0.234375q1.703125 0 2.5625 0.75q0.859375 0.734375 0.859375 2.140625q0 0.484375 -0.09375 0.890625q-0.09375 0.40625 -0.296875 0.8125q-0.203125 0.390625 -0.546875 0.84375q-0.34375 0.453125 -0.765625 0.921875q-0.421875 0.46875 -1.453125 1.5625q-1.734375 1.828125 -2.546875 3.203125l3.4375 0z" fill-rule="nonzero"/><path fill="#000000" d="m148.2828 148.28806l0 0c0 -3.391983 2.7497559 -6.1417236 6.141739 -6.1417236l0 0c1.628891 0 3.1910553 0.6470642 4.342865 1.7988739c1.1517944 1.1517944 1.7988586 2.7139587 1.7988586 4.3428497l0 0c0 3.391983 -2.7497406 6.141739 -6.1417236 6.141739l0 0c-3.391983 0 -6.141739 -2.7497559 -6.141739 -6.141739z" fill-rule="evenodd"/><path stroke="#000000" stroke-width="1.0" stroke-linejoin="round" stroke-linecap="butt" d="m148.2828 148.28806l0 0c0 -3.391983 2.7497559 -6.1417236 6.141739 -6.1417236l0 0c1.628891 0 3.1910553 0.6470642 4.342865 1.7988739c1.1517944 1.1517944 1.7988586 2.7139587 1.7988586 4.3428497l0 0c0 3.391983 -2.7497406 6.141739 -6.1417236 6.141739l0 0c-3.391983 0 -6.141739 -2.7497559 -6.141739 -6.141739z" fill-rule="evenodd"/><path fill="#000000" fill-opacity="0.0" d="m3.0682414 164.34645l151.3386 0" fill-rule="evenodd"/><path stroke="#000000" stroke-width="1.0" stroke-linejoin="round" stroke-linecap="butt" d="m9.068241 164.34645l139.3386 0" fill-rule="evenodd"/><path fill="#000000" stroke="#000000" stroke-width="1.0" stroke-linecap="butt" d="m9.068241 162.69472l-4.5380974 1.6517334l4.5380974 1.6517334z" fill-rule="evenodd"/><path fill="#000000" stroke="#000000" stroke-width="1.0" stroke-linecap="butt" d="m148.40683 165.99818l4.538086 -1.6517334l-4.538086 -1.6517334z" fill-rule="evenodd"/><path fill="#000000" fill-opacity="0.0" d="m57.330708 164.34645l60.346455 0l0 36.81891l-60.346455 0z" fill-rule="evenodd"/><path fill="#000000" d="m70.20571 190.4227l2.390625 0q0.390625 0 0.640625 -0.03125q0.265625 -0.046875 0.453125 -0.140625q0.1875 -0.109375 0.34375 -0.265625q0.15625 -0.171875 0.28125 -0.4375q0.140625 -0.28125 0.265625 -0.6875q0.125 -0.421875 0.296875 -1.25l0.921875 0l-0.171875 3.65625l-8.1875 0l0 -0.453125q0.5625 -0.140625 0.75 -0.3125q0.1875 -0.1875 0.25 -0.515625q0.0625 -0.328125 0.0625 -1.0l0 -7.875q0 -0.625 -0.046875 -0.90625q-0.046875 -0.296875 -0.15625 -0.453125q-0.09375 -0.15625 -0.28125 -0.25q-0.171875 -0.109375 -0.578125 -0.21875l0 -0.453125l3.828125 0l0 0.453125q-0.40625 0.109375 -0.578125 0.203125q-0.15625 0.078125 -0.265625 0.21875q-0.109375 0.140625 -0.171875 0.453125q-0.046875 0.296875 -0.046875 0.953125l0 9.3125zm14.714462 -12.1875l-6.578125 16.953125l-1.4375 0l6.59375 -16.953125l1.421875 0zm6.958435 11.578125q0.453125 0 0.71875 -0.046875q0.28125 -0.0625 0.4375 -0.1875q0.171875 -0.140625 0.265625 -0.34375q0.09375 -0.203125 0.234375 -0.625l0.78125 0l-0.15625 2.65625l-7.5 0l0 -0.4375q0.390625 -0.953125 1.046875 -1.953125q0.671875 -1.0 1.90625 -2.359375q1.046875 -1.171875 1.515625 -1.765625q0.515625 -0.65625 0.765625 -1.140625q0.25 -0.484375 0.359375 -0.90625q0.109375 -0.421875 0.109375 -0.84375q0 -0.6875 -0.21875 -1.203125q-0.21875 -0.53125 -0.671875 -0.828125q-0.453125 -0.296875 -1.140625 -0.296875q-1.703125 0 -2.296875 1.890625l-1.09375 0l0 -1.75q1.09375 -0.515625 2.046875 -0.75q0.96875 -0.234375 1.734375 -0.234375q1.703125 0 2.5625 0.75q0.859375 0.734375 0.859375 2.140625q0 0.484375 -0.09375 0.890625q-0.09375 0.40625 -0.296875 0.8125q-0.203125 0.390625 -0.546875 0.84375q-0.34375 0.453125 -0.765625 0.921875q-0.421875 0.46875 -1.453125 1.5625q-1.734375 1.828125 -2.546875 3.203125l3.4375 0z" fill-rule="nonzero"/></g></svg>