<svg version="1.1" viewBox="0.0 0.0 198.49606299212599 155.18897637795277" fill="none" stroke="none" stroke-linecap="square" stroke-miterlimit="10" xmlns:xlink="http://www.w3.org/1999/xlink" xmlns="http://www.w3.org/2000/svg"><clipPath id="p.0"><path d="m0 0l198.49606 0l0 155.18898l-198.49606 0l0 -155.18898z" clip-rule="nonzero"/></clipPath><g clip-path="url(#p.0)"><path fill="#000000" fill-opacity="0.0" d="m0 0l198.49606 0l0 155.18898l-198.49606 0z" fill-rule="evenodd"/><path fill="#cfe2f3" d="m0 74.64567l0 0c0 -41.225662 33.878296 -74.64567 75.66929 -74.64567l0 0c20.068748 0 39.31553 7.864432 53.50628 21.86321c14.190735 13.998777 22.16301 32.9852 22.16301 52.782455l0 0c0 41.22567 -33.87829 74.64567 -75.66929 74.64567l0 0c-41.790993 0 -75.66929 -33.42 -75.66929 -74.64567z" fill-rule="evenodd"/><path stroke="#000000" stroke-width="1.0" stroke-linejoin="round" stroke-linecap="butt" d="m0 74.64567l0 0c0 -41.225662 33.878296 -74.64567 75.66929 -74.64567l0 0c20.068748 0 39.31553 7.864432 53.50628 21.86321c14.190735 13.998777 22.16301 32.9852 22.16301 52.782455l0 0c0 41.22567 -33.87829 74.64567 -75.66929 74.64567l0 0c-41.790993 0 -75.66929 -33.42 -75.66929 -74.64567z" fill-rule="evenodd"/><path fill="#000000" d="m68.517715 75.16338l0 0c0 -3.6703033 2.9753647 -6.645668 6.645668 -6.645668l0 0c1.7625427 0 3.452896 0.7001648 4.699196 1.9464722c1.2463074 1.2462997 1.9464722 2.9366531 1.9464722 4.699196l0 0c0 3.6703033 -2.9753647 6.645668 -6.645668 6.645668l0 0c-3.6703033 0 -6.645668 -2.9753647 -6.645668 -6.645668z" fill-rule="evenodd"/><path stroke="#000000" stroke-width="1.0" stroke-linejoin="round" stroke-linecap="butt" d="m68.517715 75.16338l0 0c0 -3.6703033 2.9753647 -6.645668 6.645668 -6.645668l0 0c1.7625427 0 3.452896 0.7001648 4.699196 1.9464722c1.2463074 1.2462997 1.9464722 2.9366531 1.9464722 4.699196l0 0c0 3.6703033 -2.9753647 6.645668 -6.645668 6.645668l0 0c-3.6703033 0 -6.645668 -2.9753647 -6.645668 -6.645668z" fill-rule="evenodd"/><path fill="#000000" fill-opacity="0.0" d="m166.69029 1.023622l2.0472412 148.28346" fill-rule="evenodd"/><path stroke="#000000" stroke-width="1.0" stroke-linejoin="round" stroke-linecap="butt" d="m166.77312 7.02305l1.8815918 136.2846" fill-rule="evenodd"/><path fill="#000000" stroke="#000000" stroke-width="1.0" stroke-linecap="butt" d="m168.4247 7.000248l-1.7142334 -4.514863l-1.5889282 4.5604672z" fill-rule="evenodd"/><path fill="#000000" stroke="#000000" stroke-width="1.0" stroke-linecap="butt" d="m167.00313 143.33046l1.7142181 4.514862l1.5889282 -4.5604706z" fill-rule="evenodd"/><path fill="#000000" fill-opacity="0.0" d="m174.39108 50.29134l30.677155 0l0 35.77953l-30.677155 0z" fill-rule="evenodd"/><path fill="#000000" d="m187.26608 76.367584l2.390625 0q0.390625 0 0.640625 -0.03125q0.265625 -0.046875 0.453125 -0.140625q0.1875 -0.109375 0.34375 -0.265625q0.15625 -0.171875 0.28125 -0.4375q0.140625 -0.28125 0.265625 -0.6875q0.125 -0.421875 0.296875 -1.25l0.921875 0l-0.171875 3.65625l-8.1875 0l0 -0.453125q0.5625 -0.140625 0.75 -0.3125q0.1875 -0.1875 0.25 -0.515625q0.0625 -0.328125 0.0625 -1.0l0 -7.875q0 -0.625 -0.046875 -0.90625q-0.046875 -0.296875 -0.15625 -0.453125q-0.09375 -0.15625 -0.28125 -0.25q-0.171875 -0.109375 -0.578125 -0.21875l0 -0.453125l3.828125 0l0 0.453125q-0.40625 0.109375 -0.578125 0.203125q-0.15625 0.078125 -0.265625 0.21875q-0.109375 0.140625 -0.171875 0.453125q-0.046875 0.296875 -0.046875 0.953125l0 9.3125z" fill-rule="nonzero"/></g></svg>